<svg xmlns="http://www.w3.org/2000/svg" width="600" height="400" viewBox="0 0 600 400">
  <g transform="translate(80,20)">
    <g class="mark-Rect">
      <rect x="23.81" y="252.00" width="95.24" height="78.00" fill="#ff69b4"/>
      <rect x="23.81" y="238.50" width="95.24" height="91.50" fill="#ff69b4"/>
      <rect x="23.81" y="189.00" width="95.24" height="141.00" fill="#ff69b4"/>
      <rect x="142.86" y="256.50" width="95.24" height="73.50" fill="#ff69b4"/>
      <rect x="142.86" y="253.50" width="95.24" height="76.50" fill="#ff69b4"/>
      <rect x="142.86" y="217.50" width="95.24" height="112.50" fill="#ff69b4"/>
      <rect x="261.90" y="-22.50" width="95.24" height="352.50" fill="#ff69b4"/>
      <rect x="261.90" y="-27.00" width="95.24" height="357.00" fill="#ff69b4"/>
      <rect x="261.90" y="-1.50" width="95.24" height="331.50" fill="#ff69b4"/>
      <rect x="380.95" y="321.00" width="95.24" height="9.00" fill="#ff69b4"/>
      <rect x="380.95" y="298.50" width="95.24" height="31.50" fill="#ff69b4"/>
      <rect x="380.95" y="228.00" width="95.24" height="102.00" fill="#ff69b4"/>
    </g>
    <g class="mark-Rule">
      <line x1="0.00" y1="330.00" x2="500.00" y2="330.00" stroke="#646464" stroke-width="1.00"/>
    </g>
    <g class="mark-Rule">
      <line x1="71.43" y1="330.00" x2="71.43" y2="336.00" stroke="#646464" stroke-width="1.00"/>
      <line x1="190.48" y1="330.00" x2="190.48" y2="336.00" stroke="#646464" stroke-width="1.00"/>
      <line x1="309.52" y1="330.00" x2="309.52" y2="336.00" stroke="#646464" stroke-width="1.00"/>
      <line x1="428.57" y1="330.00" x2="428.57" y2="336.00" stroke="#646464" stroke-width="1.00"/>
    </g>
    <g class="mark-Text">
      <text x="71.43" y="346.00" text-anchor="middle" dominant-baseline="hanging" font-family="sans-serif" font-size="12.0" fill="#646464">Tokyo</text>
      <text x="190.48" y="346.00" text-anchor="middle" dominant-baseline="hanging" font-family="sans-serif" font-size="12.0" fill="#646464">London</text>
      <text x="309.52" y="346.00" text-anchor="middle" dominant-baseline="hanging" font-family="sans-serif" font-size="12.0" fill="#646464">Sydney</text>
      <text x="428.57" y="346.00" text-anchor="middle" dominant-baseline="hanging" font-family="sans-serif" font-size="12.0" fill="#646464">New York</text>
    </g>
    <g class="mark-Rule">
      <line x1="0.00" y1="0.00" x2="0.00" y2="330.00" stroke="#646464" stroke-width="1.00"/>
    </g>
    <g class="mark-Rule">
      <line x1="0.00" y1="330.00" x2="-6.00" y2="330.00" stroke="#646464" stroke-width="1.00"/>
      <line x1="0.00" y1="255.00" x2="-6.00" y2="255.00" stroke="#646464" stroke-width="1.00"/>
      <line x1="0.00" y1="180.00" x2="-6.00" y2="180.00" stroke="#646464" stroke-width="1.00"/>
      <line x1="0.00" y1="105.00" x2="-6.00" y2="105.00" stroke="#646464" stroke-width="1.00"/>
      <line x1="0.00" y1="30.00" x2="-6.00" y2="30.00" stroke="#646464" stroke-width="1.00"/>
    </g>
    <g class="mark-Text">
      <text x="-16.00" y="330.00" text-anchor="end" dominant-baseline="middle" font-family="sans-serif" font-size="12.0" fill="#646464">0</text>
      <text x="-16.00" y="255.00" text-anchor="end" dominant-baseline="middle" font-family="sans-serif" font-size="12.0" fill="#646464">5</text>
      <text x="-16.00" y="180.00" text-anchor="end" dominant-baseline="middle" font-family="sans-serif" font-size="12.0" fill="#646464">10</text>
      <text x="-16.00" y="105.00" text-anchor="end" dominant-baseline="middle" font-family="sans-serif" font-size="12.0" fill="#646464">15</text>
      <text x="-16.00" y="30.00" text-anchor="end" dominant-baseline="middle" font-family="sans-serif" font-size="12.0" fill="#646464">20</text>
    </g>
  </g>
</svg>

