<svg xmlns="http://www.w3.org/2000/svg" width="700" height="400" viewBox="0 0 700 400">
  <g transform="translate(60,20)">
    <g class="mark-Rect">
      <rect x="29.52" y="110.00" width="35.43" height="220.00" fill="#ff69b4"/>
      <rect x="68.89" y="174.17" width="35.43" height="155.83" fill="#f28e2b"/>
      <rect x="108.25" y="155.83" width="35.43" height="174.17" fill="#e15759"/>
      <rect x="177.14" y="64.17" width="35.43" height="265.83" fill="#ff69b4"/>
      <rect x="216.51" y="128.33" width="35.43" height="201.67" fill="#f28e2b"/>
      <rect x="255.87" y="100.83" width="35.43" height="229.17" fill="#e15759"/>
      <rect x="324.76" y="36.67" width="35.43" height="293.33" fill="#ff69b4"/>
      <rect x="364.13" y="91.67" width="35.43" height="238.33" fill="#f28e2b"/>
      <rect x="403.49" y="73.33" width="35.43" height="256.67" fill="#e15759"/>
      <rect x="472.38" y="0.00" width="35.43" height="330.00" fill="#ff69b4"/>
      <rect x="511.75" y="55.00" width="35.43" height="275.00" fill="#f28e2b"/>
      <rect x="551.11" y="27.50" width="35.43" height="302.50" fill="#e15759"/>
    </g>
    <g class="mark-Rule">
      <line x1="0.00" y1="330.00" x2="620.00" y2="330.00" stroke="#646464" stroke-width="1.00"/>
    </g>
    <g class="mark-Rule">
      <line x1="88.57" y1="330.00" x2="88.57" y2="336.00" stroke="#646464" stroke-width="1.00"/>
      <line x1="236.19" y1="330.00" x2="236.19" y2="336.00" stroke="#646464" stroke-width="1.00"/>
      <line x1="383.81" y1="330.00" x2="383.81" y2="336.00" stroke="#646464" stroke-width="1.00"/>
      <line x1="531.43" y1="330.00" x2="531.43" y2="336.00" stroke="#646464" stroke-width="1.00"/>
    </g>
    <g class="mark-Text">
      <text x="88.57" y="346.00" text-anchor="middle" dominant-baseline="hanging" font-family="sans-serif" font-size="12.0" fill="#646464">Q1</text>
      <text x="236.19" y="346.00" text-anchor="middle" dominant-baseline="hanging" font-family="sans-serif" font-size="12.0" fill="#646464">Q2</text>
      <text x="383.81" y="346.00" text-anchor="middle" dominant-baseline="hanging" font-family="sans-serif" font-size="12.0" fill="#646464">Q3</text>
      <text x="531.43" y="346.00" text-anchor="middle" dominant-baseline="hanging" font-family="sans-serif" font-size="12.0" fill="#646464">Q4</text>
    </g>
    <g class="mark-Rule">
      <line x1="0.00" y1="0.00" x2="0.00" y2="330.00" stroke="#646464" stroke-width="1.00"/>
    </g>
    <g class="mark-Rule">
      <line x1="0.00" y1="330.00" x2="-6.00" y2="330.00" stroke="#646464" stroke-width="1.00"/>
      <line x1="0.00" y1="238.33" x2="-6.00" y2="238.33" stroke="#646464" stroke-width="1.00"/>
      <line x1="0.00" y1="146.67" x2="-6.00" y2="146.67" stroke="#646464" stroke-width="1.00"/>
      <line x1="0.00" y1="55.00" x2="-6.00" y2="55.00" stroke="#646464" stroke-width="1.00"/>
    </g>
    <g class="mark-Text">
      <text x="-16.00" y="330.00" text-anchor="end" dominant-baseline="middle" font-family="sans-serif" font-size="12.0" fill="#646464">0</text>
      <text x="-16.00" y="238.33" text-anchor="end" dominant-baseline="middle" font-family="sans-serif" font-size="12.0" fill="#646464">50</text>
      <text x="-16.00" y="146.67" text-anchor="end" dominant-baseline="middle" font-family="sans-serif" font-size="12.0" fill="#646464">100</text>
      <text x="-16.00" y="55.00" text-anchor="end" dominant-baseline="middle" font-family="sans-serif" font-size="12.0" fill="#646464">150</text>
    </g>
  </g>
</svg>

