<svg xmlns="http://www.w3.org/2000/svg" width="600" height="400" viewBox="0 0 600 400">
  <g transform="translate(60,20)">
    <g class="mark-Line">
      <path d="M43.33,110.00L130.00,64.17L216.67,36.67L303.33,45.83L390.00,0.00L476.67,-27.50" fill="none" stroke="#ff69b4" stroke-width="2.00"/>
    </g>
    <g class="mark-Rule">
      <line x1="0.00" y1="330.00" x2="520.00" y2="330.00" stroke="#646464" stroke-width="1.00"/>
    </g>
    <g class="mark-Rule">
      <line x1="43.33" y1="330.00" x2="43.33" y2="336.00" stroke="#646464" stroke-width="1.00"/>
      <line x1="130.00" y1="330.00" x2="130.00" y2="336.00" stroke="#646464" stroke-width="1.00"/>
      <line x1="216.67" y1="330.00" x2="216.67" y2="336.00" stroke="#646464" stroke-width="1.00"/>
      <line x1="303.33" y1="330.00" x2="303.33" y2="336.00" stroke="#646464" stroke-width="1.00"/>
      <line x1="390.00" y1="330.00" x2="390.00" y2="336.00" stroke="#646464" stroke-width="1.00"/>
      <line x1="476.67" y1="330.00" x2="476.67" y2="336.00" stroke="#646464" stroke-width="1.00"/>
    </g>
    <g class="mark-Text">
      <text x="43.33" y="346.00" text-anchor="middle" dominant-baseline="hanging" font-family="sans-serif" font-size="12.0" fill="#646464">Jan</text>
      <text x="130.00" y="346.00" text-anchor="middle" dominant-baseline="hanging" font-family="sans-serif" font-size="12.0" fill="#646464">Feb</text>
      <text x="216.67" y="346.00" text-anchor="middle" dominant-baseline="hanging" font-family="sans-serif" font-size="12.0" fill="#646464">Mar</text>
      <text x="303.33" y="346.00" text-anchor="middle" dominant-baseline="hanging" font-family="sans-serif" font-size="12.0" fill="#646464">Apr</text>
      <text x="390.00" y="346.00" text-anchor="middle" dominant-baseline="hanging" font-family="sans-serif" font-size="12.0" fill="#646464">May</text>
      <text x="476.67" y="346.00" text-anchor="middle" dominant-baseline="hanging" font-family="sans-serif" font-size="12.0" fill="#646464">Jun</text>
    </g>
    <g class="mark-Rule">
      <line x1="0.00" y1="0.00" x2="0.00" y2="330.00" stroke="#646464" stroke-width="1.00"/>
    </g>
    <g class="mark-Rule">
      <line x1="0.00" y1="330.00" x2="-6.00" y2="330.00" stroke="#646464" stroke-width="1.00"/>
      <line x1="0.00" y1="238.33" x2="-6.00" y2="238.33" stroke="#646464" stroke-width="1.00"/>
      <line x1="0.00" y1="146.67" x2="-6.00" y2="146.67" stroke="#646464" stroke-width="1.00"/>
      <line x1="0.00" y1="55.00" x2="-6.00" y2="55.00" stroke="#646464" stroke-width="1.00"/>
    </g>
    <g class="mark-Text">
      <text x="-16.00" y="330.00" text-anchor="end" dominant-baseline="middle" font-family="sans-serif" font-size="12.0" fill="#646464">0</text>
      <text x="-16.00" y="238.33" text-anchor="end" dominant-baseline="middle" font-family="sans-serif" font-size="12.0" fill="#646464">50</text>
      <text x="-16.00" y="146.67" text-anchor="end" dominant-baseline="middle" font-family="sans-serif" font-size="12.0" fill="#646464">100</text>
      <text x="-16.00" y="55.00" text-anchor="end" dominant-baseline="middle" font-family="sans-serif" font-size="12.0" fill="#646464">150</text>
    </g>
  </g>
</svg>

