<svg xmlns="http://www.w3.org/2000/svg" width="700" height="400" viewBox="0 0 700 400">
  <g transform="translate(60,20)">
    <g class="mark-Rect">
      <rect x="29.52" y="60.00" width="35.43" height="270.00" fill="#ff69b4"/>
      <rect x="68.89" y="138.00" width="35.43" height="192.00" fill="#f28e2b"/>
      <rect x="108.25" y="222.00" width="35.43" height="108.00" fill="#e15759"/>
      <rect x="177.14" y="42.00" width="35.43" height="288.00" fill="#ff69b4"/>
      <rect x="216.51" y="120.00" width="35.43" height="210.00" fill="#f28e2b"/>
      <rect x="255.87" y="198.00" width="35.43" height="132.00" fill="#e15759"/>
      <rect x="324.76" y="18.00" width="35.43" height="312.00" fill="#ff69b4"/>
      <rect x="364.13" y="102.00" width="35.43" height="228.00" fill="#f28e2b"/>
      <rect x="403.49" y="162.00" width="35.43" height="168.00" fill="#e15759"/>
      <rect x="472.38" y="0.00" width="35.43" height="330.00" fill="#ff69b4"/>
      <rect x="511.75" y="78.00" width="35.43" height="252.00" fill="#f28e2b"/>
      <rect x="551.11" y="144.00" width="35.43" height="186.00" fill="#e15759"/>
    </g>
    <g class="mark-Rule">
      <line x1="0.00" y1="330.00" x2="620.00" y2="330.00" stroke="#646464" stroke-width="1.00"/>
    </g>
    <g class="mark-Rule">
      <line x1="88.57" y1="330.00" x2="88.57" y2="336.00" stroke="#646464" stroke-width="1.00"/>
      <line x1="236.19" y1="330.00" x2="236.19" y2="336.00" stroke="#646464" stroke-width="1.00"/>
      <line x1="383.81" y1="330.00" x2="383.81" y2="336.00" stroke="#646464" stroke-width="1.00"/>
      <line x1="531.43" y1="330.00" x2="531.43" y2="336.00" stroke="#646464" stroke-width="1.00"/>
    </g>
    <g class="mark-Text">
      <text x="88.57" y="346.00" text-anchor="middle" dominant-baseline="hanging" font-family="sans-serif" font-size="12.0" fill="#646464">Q1</text>
      <text x="236.19" y="346.00" text-anchor="middle" dominant-baseline="hanging" font-family="sans-serif" font-size="12.0" fill="#646464">Q2</text>
      <text x="383.81" y="346.00" text-anchor="middle" dominant-baseline="hanging" font-family="sans-serif" font-size="12.0" fill="#646464">Q3</text>
      <text x="531.43" y="346.00" text-anchor="middle" dominant-baseline="hanging" font-family="sans-serif" font-size="12.0" fill="#646464">Q4</text>
    </g>
    <g class="mark-Rule">
      <line x1="0.00" y1="0.00" x2="0.00" y2="330.00" stroke="#646464" stroke-width="1.00"/>
    </g>
    <g class="mark-Rule">
      <line x1="0.00" y1="330.00" x2="-6.00" y2="330.00" stroke="#646464" stroke-width="1.00"/>
      <line x1="0.00" y1="270.00" x2="-6.00" y2="270.00" stroke="#646464" stroke-width="1.00"/>
      <line x1="0.00" y1="210.00" x2="-6.00" y2="210.00" stroke="#646464" stroke-width="1.00"/>
      <line x1="0.00" y1="150.00" x2="-6.00" y2="150.00" stroke="#646464" stroke-width="1.00"/>
      <line x1="0.00" y1="90.00" x2="-6.00" y2="90.00" stroke="#646464" stroke-width="1.00"/>
      <line x1="0.00" y1="30.00" x2="-6.00" y2="30.00" stroke="#646464" stroke-width="1.00"/>
    </g>
    <g class="mark-Text">
      <text x="-16.00" y="330.00" text-anchor="end" dominant-baseline="middle" font-family="sans-serif" font-size="12.0" fill="#646464">0</text>
      <text x="-16.00" y="270.00" text-anchor="end" dominant-baseline="middle" font-family="sans-serif" font-size="12.0" fill="#646464">100</text>
      <text x="-16.00" y="210.00" text-anchor="end" dominant-baseline="middle" font-family="sans-serif" font-size="12.0" fill="#646464">200</text>
      <text x="-16.00" y="150.00" text-anchor="end" dominant-baseline="middle" font-family="sans-serif" font-size="12.0" fill="#646464">300</text>
      <text x="-16.00" y="90.00" text-anchor="end" dominant-baseline="middle" font-family="sans-serif" font-size="12.0" fill="#646464">400</text>
      <text x="-16.00" y="30.00" text-anchor="end" dominant-baseline="middle" font-family="sans-serif" font-size="12.0" fill="#646464">500</text>
    </g>
  </g>
</svg>

