<svg xmlns="http://www.w3.org/2000/svg" width="700" height="400" viewBox="0 0 700 400">
  <g transform="translate(60,20)">
    <g class="mark-Rect">
      <rect x="324.76" y="184.58" width="118.10" height="145.42" fill="#ff69b4"/>
      <rect x="324.76" y="78.31" width="118.10" height="106.27" fill="#f28e2b"/>
      <rect x="324.76" y="-0.00" width="118.10" height="78.31" fill="#e15759"/>
      <rect x="472.38" y="188.20" width="118.10" height="141.80" fill="#ff69b4"/>
      <rect x="472.38" y="79.92" width="118.10" height="108.28" fill="#f28e2b"/>
      <rect x="472.38" y="-0.00" width="118.10" height="79.92" fill="#e15759"/>
      <rect x="29.52" y="173.68" width="118.10" height="156.32" fill="#ff69b4"/>
      <rect x="29.52" y="62.53" width="118.10" height="111.16" fill="#f28e2b"/>
      <rect x="29.52" y="-0.00" width="118.10" height="62.53" fill="#e15759"/>
      <rect x="177.14" y="179.14" width="118.10" height="150.86" fill="#ff69b4"/>
      <rect x="177.14" y="69.14" width="118.10" height="110.00" fill="#f28e2b"/>
      <rect x="177.14" y="-0.00" width="118.10" height="69.14" fill="#e15759"/>
    </g>
    <g class="mark-Rule">
      <line x1="0.00" y1="330.00" x2="620.00" y2="330.00" stroke="#646464" stroke-width="1.00"/>
    </g>
    <g class="mark-Rule">
      <line x1="88.57" y1="330.00" x2="88.57" y2="336.00" stroke="#646464" stroke-width="1.00"/>
      <line x1="236.19" y1="330.00" x2="236.19" y2="336.00" stroke="#646464" stroke-width="1.00"/>
      <line x1="383.81" y1="330.00" x2="383.81" y2="336.00" stroke="#646464" stroke-width="1.00"/>
      <line x1="531.43" y1="330.00" x2="531.43" y2="336.00" stroke="#646464" stroke-width="1.00"/>
    </g>
    <g class="mark-Text">
      <text x="88.57" y="346.00" text-anchor="middle" dominant-baseline="hanging" font-family="sans-serif" font-size="12.0" fill="#646464">Q1</text>
      <text x="236.19" y="346.00" text-anchor="middle" dominant-baseline="hanging" font-family="sans-serif" font-size="12.0" fill="#646464">Q2</text>
      <text x="383.81" y="346.00" text-anchor="middle" dominant-baseline="hanging" font-family="sans-serif" font-size="12.0" fill="#646464">Q3</text>
      <text x="531.43" y="346.00" text-anchor="middle" dominant-baseline="hanging" font-family="sans-serif" font-size="12.0" fill="#646464">Q4</text>
    </g>
    <g class="mark-Rule">
      <line x1="0.00" y1="0.00" x2="0.00" y2="330.00" stroke="#646464" stroke-width="1.00"/>
    </g>
    <g class="mark-Rule">
      <line x1="0.00" y1="330.00" x2="-6.00" y2="330.00" stroke="#646464" stroke-width="1.00"/>
      <line x1="0.00" y1="264.00" x2="-6.00" y2="264.00" stroke="#646464" stroke-width="1.00"/>
      <line x1="0.00" y1="198.00" x2="-6.00" y2="198.00" stroke="#646464" stroke-width="1.00"/>
      <line x1="0.00" y1="132.00" x2="-6.00" y2="132.00" stroke="#646464" stroke-width="1.00"/>
      <line x1="0.00" y1="66.00" x2="-6.00" y2="66.00" stroke="#646464" stroke-width="1.00"/>
      <line x1="0.00" y1="-0.00" x2="-6.00" y2="-0.00" stroke="#646464" stroke-width="1.00"/>
    </g>
    <g class="mark-Text">
      <text x="-16.00" y="330.00" text-anchor="end" dominant-baseline="middle" font-family="sans-serif" font-size="12.0" fill="#646464">0</text>
      <text x="-16.00" y="264.00" text-anchor="end" dominant-baseline="middle" font-family="sans-serif" font-size="12.0" fill="#646464">0.20</text>
      <text x="-16.00" y="198.00" text-anchor="end" dominant-baseline="middle" font-family="sans-serif" font-size="12.0" fill="#646464">0.40</text>
      <text x="-16.00" y="132.00" text-anchor="end" dominant-baseline="middle" font-family="sans-serif" font-size="12.0" fill="#646464">0.60</text>
      <text x="-16.00" y="66.00" text-anchor="end" dominant-baseline="middle" font-family="sans-serif" font-size="12.0" fill="#646464">0.80</text>
      <text x="-16.00" y="-0.00" text-anchor="end" dominant-baseline="middle" font-family="sans-serif" font-size="12.0" fill="#646464">1</text>
    </g>
  </g>
</svg>

