<svg xmlns="http://www.w3.org/2000/svg" width="700" height="400" viewBox="0 0 700 400">
  <g transform="translate(60,20)">
    <g class="mark-Rect">
      <rect x="177.14" y="207.43" width="118.10" height="122.57" fill="#ff69b4"/>
      <rect x="177.14" y="117.86" width="118.10" height="89.57" fill="#f28e2b"/>
      <rect x="177.14" y="44.79" width="118.10" height="73.07" fill="#e15759"/>
      <rect x="324.76" y="186.21" width="118.10" height="143.79" fill="#ff69b4"/>
      <rect x="324.76" y="80.14" width="118.10" height="106.07" fill="#f28e2b"/>
      <rect x="324.76" y="-2.36" width="118.10" height="82.50" fill="#e15759"/>
      <rect x="29.52" y="223.93" width="118.10" height="106.07" fill="#ff69b4"/>
      <rect x="29.52" y="148.50" width="118.10" height="75.43" fill="#f28e2b"/>
      <rect x="29.52" y="82.50" width="118.10" height="66.00" fill="#e15759"/>
      <rect x="472.38" y="193.29" width="118.10" height="136.71" fill="#ff69b4"/>
      <rect x="472.38" y="96.64" width="118.10" height="96.64" fill="#f28e2b"/>
      <rect x="472.38" y="7.07" width="118.10" height="89.57" fill="#e15759"/>
    </g>
    <g class="mark-Rule">
      <line x1="0.00" y1="330.00" x2="620.00" y2="330.00" stroke="#646464" stroke-width="1.00"/>
    </g>
    <g class="mark-Rule">
      <line x1="88.57" y1="330.00" x2="88.57" y2="336.00" stroke="#646464" stroke-width="1.00"/>
      <line x1="236.19" y1="330.00" x2="236.19" y2="336.00" stroke="#646464" stroke-width="1.00"/>
      <line x1="383.81" y1="330.00" x2="383.81" y2="336.00" stroke="#646464" stroke-width="1.00"/>
      <line x1="531.43" y1="330.00" x2="531.43" y2="336.00" stroke="#646464" stroke-width="1.00"/>
    </g>
    <g class="mark-Text">
      <text x="88.57" y="346.00" text-anchor="middle" dominant-baseline="hanging" font-family="sans-serif" font-size="12.0" fill="#646464">Jan</text>
      <text x="236.19" y="346.00" text-anchor="middle" dominant-baseline="hanging" font-family="sans-serif" font-size="12.0" fill="#646464">Feb</text>
      <text x="383.81" y="346.00" text-anchor="middle" dominant-baseline="hanging" font-family="sans-serif" font-size="12.0" fill="#646464">Mar</text>
      <text x="531.43" y="346.00" text-anchor="middle" dominant-baseline="hanging" font-family="sans-serif" font-size="12.0" fill="#646464">Apr</text>
    </g>
    <g class="mark-Rule">
      <line x1="0.00" y1="0.00" x2="0.00" y2="330.00" stroke="#646464" stroke-width="1.00"/>
    </g>
    <g class="mark-Rule">
      <line x1="0.00" y1="330.00" x2="-6.00" y2="330.00" stroke="#646464" stroke-width="1.00"/>
      <line x1="0.00" y1="282.86" x2="-6.00" y2="282.86" stroke="#646464" stroke-width="1.00"/>
      <line x1="0.00" y1="235.71" x2="-6.00" y2="235.71" stroke="#646464" stroke-width="1.00"/>
      <line x1="0.00" y1="188.57" x2="-6.00" y2="188.57" stroke="#646464" stroke-width="1.00"/>
      <line x1="0.00" y1="141.43" x2="-6.00" y2="141.43" stroke="#646464" stroke-width="1.00"/>
      <line x1="0.00" y1="94.29" x2="-6.00" y2="94.29" stroke="#646464" stroke-width="1.00"/>
      <line x1="0.00" y1="47.14" x2="-6.00" y2="47.14" stroke="#646464" stroke-width="1.00"/>
      <line x1="0.00" y1="0.00" x2="-6.00" y2="0.00" stroke="#646464" stroke-width="1.00"/>
    </g>
    <g class="mark-Text">
      <text x="-16.00" y="330.00" text-anchor="end" dominant-baseline="middle" font-family="sans-serif" font-size="12.0" fill="#646464">0</text>
      <text x="-16.00" y="282.86" text-anchor="end" dominant-baseline="middle" font-family="sans-serif" font-size="12.0" fill="#646464">20.0K</text>
      <text x="-16.00" y="235.71" text-anchor="end" dominant-baseline="middle" font-family="sans-serif" font-size="12.0" fill="#646464">40.0K</text>
      <text x="-16.00" y="188.57" text-anchor="end" dominant-baseline="middle" font-family="sans-serif" font-size="12.0" fill="#646464">60.0K</text>
      <text x="-16.00" y="141.43" text-anchor="end" dominant-baseline="middle" font-family="sans-serif" font-size="12.0" fill="#646464">80.0K</text>
      <text x="-16.00" y="94.29" text-anchor="end" dominant-baseline="middle" font-family="sans-serif" font-size="12.0" fill="#646464">100.0K</text>
      <text x="-16.00" y="47.14" text-anchor="end" dominant-baseline="middle" font-family="sans-serif" font-size="12.0" fill="#646464">120.0K</text>
      <text x="-16.00" y="0.00" text-anchor="end" dominant-baseline="middle" font-family="sans-serif" font-size="12.0" fill="#646464">140.0K</text>
    </g>
  </g>
</svg>

