<svg xmlns="http://www.w3.org/2000/svg" width="700" height="400" viewBox="0 0 700 400">
  <g transform="translate(60,20)">
    <g class="mark-Rect">
      <rect x="29.52" y="82.50" width="35.43" height="247.50" fill="#ff69b4"/>
      <rect x="68.89" y="154.00" width="35.43" height="176.00" fill="#f28e2b"/>
      <rect x="108.25" y="176.00" width="35.43" height="154.00" fill="#e15759"/>
      <rect x="177.14" y="44.00" width="35.43" height="286.00" fill="#ff69b4"/>
      <rect x="216.51" y="121.00" width="35.43" height="209.00" fill="#f28e2b"/>
      <rect x="255.87" y="159.50" width="35.43" height="170.50" fill="#e15759"/>
      <rect x="324.76" y="-5.50" width="35.43" height="335.50" fill="#ff69b4"/>
      <rect x="364.13" y="82.50" width="35.43" height="247.50" fill="#f28e2b"/>
      <rect x="403.49" y="137.50" width="35.43" height="192.50" fill="#e15759"/>
      <rect x="472.38" y="11.00" width="35.43" height="319.00" fill="#ff69b4"/>
      <rect x="511.75" y="104.50" width="35.43" height="225.50" fill="#f28e2b"/>
      <rect x="551.11" y="121.00" width="35.43" height="209.00" fill="#e15759"/>
    </g>
    <g class="mark-Rule">
      <line x1="0.00" y1="330.00" x2="620.00" y2="330.00" stroke="#646464" stroke-width="1.00"/>
    </g>
    <g class="mark-Rule">
      <line x1="88.57" y1="330.00" x2="88.57" y2="336.00" stroke="#646464" stroke-width="1.00"/>
      <line x1="236.19" y1="330.00" x2="236.19" y2="336.00" stroke="#646464" stroke-width="1.00"/>
      <line x1="383.81" y1="330.00" x2="383.81" y2="336.00" stroke="#646464" stroke-width="1.00"/>
      <line x1="531.43" y1="330.00" x2="531.43" y2="336.00" stroke="#646464" stroke-width="1.00"/>
    </g>
    <g class="mark-Text">
      <text x="88.57" y="346.00" text-anchor="middle" dominant-baseline="hanging" font-family="sans-serif" font-size="12.0" fill="#646464">Jan</text>
      <text x="236.19" y="346.00" text-anchor="middle" dominant-baseline="hanging" font-family="sans-serif" font-size="12.0" fill="#646464">Feb</text>
      <text x="383.81" y="346.00" text-anchor="middle" dominant-baseline="hanging" font-family="sans-serif" font-size="12.0" fill="#646464">Mar</text>
      <text x="531.43" y="346.00" text-anchor="middle" dominant-baseline="hanging" font-family="sans-serif" font-size="12.0" fill="#646464">Apr</text>
    </g>
    <g class="mark-Rule">
      <line x1="0.00" y1="0.00" x2="0.00" y2="330.00" stroke="#646464" stroke-width="1.00"/>
    </g>
    <g class="mark-Rule">
      <line x1="0.00" y1="330.00" x2="-6.00" y2="330.00" stroke="#646464" stroke-width="1.00"/>
      <line x1="0.00" y1="275.00" x2="-6.00" y2="275.00" stroke="#646464" stroke-width="1.00"/>
      <line x1="0.00" y1="220.00" x2="-6.00" y2="220.00" stroke="#646464" stroke-width="1.00"/>
      <line x1="0.00" y1="165.00" x2="-6.00" y2="165.00" stroke="#646464" stroke-width="1.00"/>
      <line x1="0.00" y1="110.00" x2="-6.00" y2="110.00" stroke="#646464" stroke-width="1.00"/>
      <line x1="0.00" y1="55.00" x2="-6.00" y2="55.00" stroke="#646464" stroke-width="1.00"/>
      <line x1="0.00" y1="0.00" x2="-6.00" y2="0.00" stroke="#646464" stroke-width="1.00"/>
    </g>
    <g class="mark-Text">
      <text x="-16.00" y="330.00" text-anchor="end" dominant-baseline="middle" font-family="sans-serif" font-size="12.0" fill="#646464">0</text>
      <text x="-16.00" y="275.00" text-anchor="end" dominant-baseline="middle" font-family="sans-serif" font-size="12.0" fill="#646464">10.0K</text>
      <text x="-16.00" y="220.00" text-anchor="end" dominant-baseline="middle" font-family="sans-serif" font-size="12.0" fill="#646464">20.0K</text>
      <text x="-16.00" y="165.00" text-anchor="end" dominant-baseline="middle" font-family="sans-serif" font-size="12.0" fill="#646464">30.0K</text>
      <text x="-16.00" y="110.00" text-anchor="end" dominant-baseline="middle" font-family="sans-serif" font-size="12.0" fill="#646464">40.0K</text>
      <text x="-16.00" y="55.00" text-anchor="end" dominant-baseline="middle" font-family="sans-serif" font-size="12.0" fill="#646464">50.0K</text>
      <text x="-16.00" y="0.00" text-anchor="end" dominant-baseline="middle" font-family="sans-serif" font-size="12.0" fill="#646464">60.0K</text>
    </g>
  </g>
</svg>

