<svg xmlns="http://www.w3.org/2000/svg" width="700" height="400" viewBox="0 0 700 400">
  <g transform="translate(60,20)">
    <g class="mark-Area">
      <path d="M51.67,113.44L155.00,80.44L258.33,39.19L361.67,47.44L465.00,10.31L568.33,-18.56L568.33,74.25L465.00,96.94L361.67,125.81L258.33,111.38L155.00,144.38L51.67,171.19Z" fill="#e15759" opacity="0.70"/>
      <path d="M51.67,237.19L155.00,222.75L258.33,204.19L361.67,210.38L465.00,195.94L568.33,181.50L568.33,330.00L465.00,330.00L361.67,330.00L258.33,330.00L155.00,330.00L51.67,330.00Z" fill="#ff69b4" opacity="0.70"/>
      <path d="M51.67,171.19L155.00,144.38L258.33,111.38L361.67,125.81L465.00,96.94L568.33,74.25L568.33,181.50L465.00,195.94L361.67,210.38L258.33,204.19L155.00,222.75L51.67,237.19Z" fill="#f28e2b" opacity="0.70"/>
    </g>
    <g class="mark-Line">
      <path d="M51.67,113.44L155.00,80.44L258.33,39.19L361.67,47.44L465.00,10.31L568.33,-18.56" fill="none" stroke="#e15759" stroke-width="2.00"/>
      <path d="M51.67,237.19L155.00,222.75L258.33,204.19L361.67,210.38L465.00,195.94L568.33,181.50" fill="none" stroke="#ff69b4" stroke-width="2.00"/>
      <path d="M51.67,171.19L155.00,144.38L258.33,111.38L361.67,125.81L465.00,96.94L568.33,74.25" fill="none" stroke="#f28e2b" stroke-width="2.00"/>
    </g>
    <g class="mark-Rule">
      <line x1="0.00" y1="330.00" x2="620.00" y2="330.00" stroke="#646464" stroke-width="1.00"/>
    </g>
    <g class="mark-Rule">
      <line x1="51.67" y1="330.00" x2="51.67" y2="336.00" stroke="#646464" stroke-width="1.00"/>
      <line x1="155.00" y1="330.00" x2="155.00" y2="336.00" stroke="#646464" stroke-width="1.00"/>
      <line x1="258.33" y1="330.00" x2="258.33" y2="336.00" stroke="#646464" stroke-width="1.00"/>
      <line x1="361.67" y1="330.00" x2="361.67" y2="336.00" stroke="#646464" stroke-width="1.00"/>
      <line x1="465.00" y1="330.00" x2="465.00" y2="336.00" stroke="#646464" stroke-width="1.00"/>
      <line x1="568.33" y1="330.00" x2="568.33" y2="336.00" stroke="#646464" stroke-width="1.00"/>
    </g>
    <g class="mark-Text">
      <text x="51.67" y="346.00" text-anchor="middle" dominant-baseline="hanging" font-family="sans-serif" font-size="12.0" fill="#646464">Jan</text>
      <text x="155.00" y="346.00" text-anchor="middle" dominant-baseline="hanging" font-family="sans-serif" font-size="12.0" fill="#646464">Feb</text>
      <text x="258.33" y="346.00" text-anchor="middle" dominant-baseline="hanging" font-family="sans-serif" font-size="12.0" fill="#646464">Mar</text>
      <text x="361.67" y="346.00" text-anchor="middle" dominant-baseline="hanging" font-family="sans-serif" font-size="12.0" fill="#646464">Apr</text>
      <text x="465.00" y="346.00" text-anchor="middle" dominant-baseline="hanging" font-family="sans-serif" font-size="12.0" fill="#646464">May</text>
      <text x="568.33" y="346.00" text-anchor="middle" dominant-baseline="hanging" font-family="sans-serif" font-size="12.0" fill="#646464">Jun</text>
    </g>
    <g class="mark-Rule">
      <line x1="0.00" y1="0.00" x2="0.00" y2="330.00" stroke="#646464" stroke-width="1.00"/>
    </g>
    <g class="mark-Rule">
      <line x1="0.00" y1="330.00" x2="-6.00" y2="330.00" stroke="#646464" stroke-width="1.00"/>
      <line x1="0.00" y1="226.88" x2="-6.00" y2="226.88" stroke="#646464" stroke-width="1.00"/>
      <line x1="0.00" y1="123.75" x2="-6.00" y2="123.75" stroke="#646464" stroke-width="1.00"/>
      <line x1="0.00" y1="20.62" x2="-6.00" y2="20.62" stroke="#646464" stroke-width="1.00"/>
    </g>
    <g class="mark-Text">
      <text x="-16.00" y="330.00" text-anchor="end" dominant-baseline="middle" font-family="sans-serif" font-size="12.0" fill="#646464">0</text>
      <text x="-16.00" y="226.88" text-anchor="end" dominant-baseline="middle" font-family="sans-serif" font-size="12.0" fill="#646464">50</text>
      <text x="-16.00" y="123.75" text-anchor="end" dominant-baseline="middle" font-family="sans-serif" font-size="12.0" fill="#646464">100</text>
      <text x="-16.00" y="20.62" text-anchor="end" dominant-baseline="middle" font-family="sans-serif" font-size="12.0" fill="#646464">150</text>
    </g>
  </g>
</svg>

